<?xml version="1.0" encoding="utf-8"?>
<!-- Generator: Adobe Illustrator 16.0.0, SVG Export Plug-In . SVG Version: 6.00 Build 0)  -->
<!DOCTYPE svg PUBLIC "-//W3C//DTD SVG 1.1//EN" "http://www.w3.org/Graphics/SVG/1.1/DTD/svg11.dtd">
<svg version="1.1" id="Layer_1" xmlns="http://www.w3.org/2000/svg" xmlns:xlink="http://www.w3.org/1999/xlink" x="0px" y="0px"
	 width="90.75px" height="103.5px" viewBox="0 0 90.75 103.5" enable-background="new 0 0 90.75 103.5" xml:space="preserve">
<polygon fill="#FFAB51" stroke="#808285" stroke-width="2" stroke-miterlimit="10" points="88.426,76.369 45.125,101.369 
	1.824,76.369 1.824,26.369 45.125,1.369 88.426,26.369 "/>
<path fill="#FFFFFF" d="M41.799,21.602h6.652c0,0-0.492,1.677-0.729,1.664c-0.237-0.014-5.274,0.015-5.274,0.015L41.799,21.602z
	 M42.273,23.85c-3.072,0.123-2.336,1.296-1.793,1.842c0.581,0.58,0.513,1.548,0.493,1.746c-0.862,0.023-1.561,0.733-1.561,1.601
	c0,0.85,0.672,1.55,1.511,1.598c-0.568,2.964-1.215,4.691-2.955,5.056c-6.736,0-10.684,7.865-10.684,10.685l-0.01,4.055
	c-0.389,0.478-0.599,0.979-0.599,1.496c0,0.513,0.206,1.012,0.589,1.486l-0.019,6.79c-0.372,0.468-0.57,0.958-0.57,1.462
	c0,0.501,0.195,0.986,0.562,1.451l-0.024,8.494c-0.351,0.455-0.539,0.93-0.539,1.419c0,0.485,0.185,0.957,0.531,1.409l-0.017,5.951
	c-0.335,0.444-0.514,0.908-0.514,1.386s0.178,0.938,0.509,1.383c0.119,5.041,8.056,9.108,17.832,9.108h0.217
	c9.775,0,17.713-4.067,17.832-9.108c0.332-0.441,0.509-0.905,0.509-1.381c0-0.479-0.179-0.942-0.513-1.388l-0.016-5.949
	c0.345-0.452,0.528-0.925,0.528-1.411c0-0.488-0.187-0.964-0.536-1.418l-0.025-8.495c0.367-0.464,0.562-0.95,0.562-1.45
	c0-0.505-0.196-0.995-0.569-1.462l-0.019-6.791c0.384-0.475,0.588-0.973,0.588-1.485c0-0.518-0.207-1.018-0.597-1.496l-0.009-4.055
	c0-2.82-3.949-10.686-10.688-10.686c-1.737-0.365-2.386-2.091-2.952-5.056c0.837-0.048,1.509-0.747,1.509-1.598
	c0-0.868-0.698-1.578-1.561-1.601c-0.02-0.198-0.089-1.166,0.493-1.746c0.544-0.544,1.281-1.719-1.791-1.842L42.273,23.85
	L42.273,23.85L42.273,23.85z M42.752,8.215v1.257h4.665V8.215h-2.332h-0.171H42.752z M28.536,45.971
	c0.165-1.136,0.949-3.214,2.469-5.173c1.378-1.772,3.7-3.886,6.963-3.886h0.125l0.124-0.026c2.645-0.554,3.356-3.164,3.903-6.02
	l0.263-1.368l-1.391-0.08c-0.202-0.011-0.361-0.179-0.361-0.379c0-0.201,0.171-0.375,0.374-0.381l1.07-0.028l0.111-1.064
	c0.037-0.36,0.093-1.516-0.584-2.435c0.186-0.026,0.422-0.048,0.72-0.06l5.657,0c0.272,0.012,0.494,0.033,0.671,0.057
	c-0.679,0.92-0.623,2.078-0.584,2.439l0.114,1.064l1.066,0.028c0.202,0.005,0.373,0.18,0.373,0.381c0,0.2-0.158,0.367-0.36,0.378
	L47.869,29.5l0.26,1.367c0.549,2.856,1.261,5.466,3.905,6.02l0.123,0.025h0.127c5.68,0,9.085,6.434,9.435,9.058H28.536z
	 M41.434,27.741h7.813v0.916h-7.813V27.741z M41.434,29.51h7.132v1.098h-7.132V29.51L41.434,29.51z M48.092,7.365
	c-0.578-0.165-2.129-0.329-2.879-0.329h-0.171c-0.751,0-2.303,0.165-2.879,0.329c-0.58,0.165-0.66,1.319-0.66,1.319h0.721v7.022
	c0,1.471,1.068,2.696,2.468,2.943v2.265h0.161h0.345h0.574h0.036h0.135v-2.309c1.296-0.327,2.259-1.503,2.259-2.899V8.686h0.548
	C48.752,8.686,48.67,7.53,48.092,7.365z M45.126,15.185c-0.23,0-0.417-0.186-0.417-0.417c0-0.229,0.187-0.418,0.417-0.418
	c0.232,0,0.419,0.187,0.419,0.418S45.358,15.185,45.126,15.185z M45.631,13.321c0,0.278-0.225,0.505-0.505,0.505
	c-0.278,0-0.503-0.227-0.503-0.505s0.225-0.505,0.503-0.505C45.406,12.816,45.631,13.043,45.631,13.321z M45.218,11.919
	c0-0.333,0.271-0.605,0.604-0.605s0.605,0.271,0.605,0.605c0,0.334-0.271,0.605-0.605,0.605
	C45.488,12.524,45.218,12.253,45.218,11.919z M47.585,9.963h-0.006v6.009c0,0,0.166,1.718-2.02,2.287c0,0,1.639-0.523,1.639-2.323
	c0-1.647,0.03-5.974,0.03-5.974h-0.397c0,0.415-0.337,0.75-0.75,0.75c-0.414,0-0.751-0.336-0.751-0.75h-2.234
	c0,0,0.031,4.327,0.031,5.974c0,1.799,1.736,2.323,1.736,2.323c-2.186-0.569-2.02-2.287-2.02-2.287V9.963V8.685h2.198h0.173h2.37
	V9.963L47.585,9.963z M30.047,44.871c0.573,0,1.039,0.465,1.039,1.039c0,0.573-0.466,1.039-1.039,1.039
	c-0.574,0-1.04-0.465-1.04-1.039C29.007,45.336,29.474,44.871,30.047,44.871z M31.086,48.093c0.688,0,1.246,0.558,1.246,1.245
	s-0.559,1.246-1.246,1.246c-0.688,0-1.246-0.558-1.246-1.246S30.398,48.093,31.086,48.093z M37.526,42.812
	c0.688,0,1.245,0.558,1.245,1.245c0,0.688-0.556,1.246-1.245,1.246c-0.688,0-1.246-0.558-1.246-1.246
	C36.28,43.37,36.839,42.812,37.526,42.812z M56.671,48.908c0.87,0,1.577,0.708,1.577,1.58s-0.707,1.579-1.577,1.579
	c-0.873,0-1.58-0.707-1.58-1.579S55.798,48.908,56.671,48.908z M38.35,46.992c0.864,0,1.565,0.701,1.565,1.565
	c0,0.863-0.701,1.564-1.565,1.564c-0.862,0-1.564-0.701-1.564-1.564C36.785,47.693,37.487,46.992,38.35,46.992z M47.262,44.96
	c0.799,0,1.447,0.646,1.447,1.446c0,0.799-0.648,1.447-1.447,1.447c-0.801,0-1.449-0.648-1.449-1.447
	C45.812,45.606,46.463,44.96,47.262,44.96z M51.713,46.992c0.798,0,1.446,0.648,1.446,1.447c0,0.8-0.648,1.447-1.446,1.447
	c-0.802,0-1.448-0.647-1.448-1.447C50.265,47.64,50.913,46.992,51.713,46.992z M49.224,41.336c0.689,0,1.246,0.557,1.246,1.245
	c0,0.688-0.557,1.245-1.246,1.245c-0.686,0-1.244-0.557-1.244-1.245C47.979,41.894,48.538,41.336,49.224,41.336z M33.89,44.868
	c0.912,0,1.651,0.74,1.651,1.651c0,0.913-0.74,1.652-1.651,1.652c-0.912,0-1.652-0.739-1.652-1.652
	C32.238,45.608,32.978,44.868,33.89,44.868z M55.466,44.443c0.791,0,1.433,0.64,1.433,1.43s-0.642,1.431-1.433,1.431
	s-1.432-0.64-1.432-1.431S54.679,44.443,55.466,44.443z M42.679,46.115c0.688,0,1.246,0.559,1.246,1.246
	c0,0.688-0.558,1.245-1.246,1.245c-0.688,0-1.245-0.557-1.245-1.245C41.434,46.674,41.991,46.115,42.679,46.115z M35.133,50.007
	c0.688,0,1.247,0.556,1.247,1.245c0,0.687-0.559,1.246-1.247,1.246c-0.687,0-1.245-0.559-1.245-1.246
	C33.888,50.563,34.446,50.007,35.133,50.007z M47.882,48.762c0.687,0,1.245,0.558,1.245,1.246c0,0.688-0.559,1.245-1.245,1.245
	c-0.689,0-1.245-0.558-1.245-1.245C46.637,49.319,47.192,48.762,47.882,48.762z M60.096,46.352c0.689,0,1.245,0.558,1.245,1.246
	c0,0.687-0.556,1.245-1.245,1.245c-0.687,0-1.246-0.558-1.246-1.245C58.85,46.91,59.409,46.352,60.096,46.352z"/>
</svg>
