<?xml version="1.0" encoding="utf-8"?>
<!-- Generator: Adobe Illustrator 16.0.0, SVG Export Plug-In . SVG Version: 6.00 Build 0)  -->
<!DOCTYPE svg PUBLIC "-//W3C//DTD SVG 1.1//EN" "http://www.w3.org/Graphics/SVG/1.1/DTD/svg11.dtd">
<svg version="1.1" id="Layer_1" xmlns="http://www.w3.org/2000/svg" xmlns:xlink="http://www.w3.org/1999/xlink" x="0px" y="0px"
	 width="90.75px" height="103.5px" viewBox="0 0 90.75 103.5" enable-background="new 0 0 90.75 103.5" xml:space="preserve">
<polygon fill="#6DDB67" stroke="#808285" stroke-width="2" stroke-miterlimit="10" points="88.426,76.369 45.125,101.369 
	1.824,76.369 1.824,26.369 45.125,1.369 88.426,26.369 "/>
<path fill="#FFFFFF" d="M45.125,14.826c-19.935,0-36.1,16.164-36.1,36.101c0,15.951,10.343,29.48,24.689,34.253
	c1.805,0.33,2.463-0.785,2.463-1.736c0-0.859-0.033-3.707-0.051-6.721c-10.039,2.182-12.16-4.258-12.16-4.258
	c-1.644-4.168-4.008-5.279-4.008-5.279c-3.281-2.238,0.249-2.193,0.249-2.193c3.625,0.25,5.533,3.719,5.533,3.719
	c3.221,5.518,8.452,3.922,10.505,2.996c0.328-2.326,1.263-3.922,2.292-4.82c-8.014-0.912-16.443-4.01-16.443-17.843
	c0-3.944,1.407-7.161,3.712-9.688c-0.368-0.917-1.611-4.589,0.357-9.558c0,0,3.027-0.969,9.928,3.702
	c2.877-0.804,5.964-1.201,9.033-1.214c3.066,0.013,6.156,0.414,9.039,1.218c6.887-4.675,9.92-3.702,9.92-3.702
	c1.973,4.973,0.73,8.641,0.361,9.554c2.312,2.527,3.709,5.745,3.709,9.688c0,13.868-8.443,16.921-16.484,17.815
	c1.299,1.121,2.449,3.314,2.449,6.682c0,4.824-0.049,8.717-0.049,9.906c0,0.961,0.658,2.084,2.486,1.732
	c14.334-4.781,24.668-18.311,24.668-34.253C81.225,30.989,65.062,14.826,45.125,14.826z"/>
</svg>
