<?xml version="1.0" encoding="utf-8"?>
<!-- Generator: Adobe Illustrator 16.0.0, SVG Export Plug-In . SVG Version: 6.00 Build 0)  -->
<!DOCTYPE svg PUBLIC "-//W3C//DTD SVG 1.1//EN" "http://www.w3.org/Graphics/SVG/1.1/DTD/svg11.dtd">
<svg version="1.1" id="Layer_1" xmlns="http://www.w3.org/2000/svg" xmlns:xlink="http://www.w3.org/1999/xlink" x="0px" y="0px"
	 width="90.75px" height="103.5px" viewBox="0 0 90.75 103.5" enable-background="new 0 0 90.75 103.5" xml:space="preserve">
<polygon fill="#D5D7D8" stroke="#808285" stroke-width="2" stroke-miterlimit="10" points="88.426,76.369 45.125,101.369 
	1.824,76.369 1.824,26.369 45.125,1.369 88.426,26.369 "/>
<g>
	<polygon fill="#FFFFFF" points="51.934,38.655 56.949,43.669 61.955,38.655 56.949,33.645 	"/>
	<polygon fill="#FFFFFF" points="67.895,32.719 62.885,27.71 57.869,32.719 62.885,37.73 	"/>
	<polygon fill="#FFFFFF" points="68.82,21.77 63.809,26.78 68.82,31.791 73.834,26.78 	"/>
	<polygon fill="#FFFFFF" points="55.977,32.676 50.965,27.662 45.957,32.676 50.965,37.69 	"/>
	<polygon fill="#FFFFFF" points="61.914,26.737 56.902,21.726 51.891,26.737 56.902,31.751 	"/>
	<polygon fill="#FFFFFF" points="67.855,20.802 62.84,15.791 57.83,20.802 62.84,25.811 	"/>
	<polygon fill="#FFFFFF" points="16.093,74.497 21.107,79.511 26.117,74.497 21.107,69.485 	"/>
	<polygon fill="#FFFFFF" points="22.032,68.558 27.042,73.571 32.052,68.558 27.042,63.552 	"/>
	<polygon fill="#FFFFFF" points="27.968,62.622 32.978,67.632 37.992,62.622 32.981,57.61 	"/>
	<polygon fill="#FFFFFF" points="15.128,63.503 10.114,68.517 15.128,73.532 20.134,68.517 	"/>
	<polygon fill="#FFFFFF" points="26.074,62.579 21.063,57.567 16.049,62.579 21.063,67.593 	"/>
	<polygon fill="#FFFFFF" points="32.013,56.638 26.999,51.633 21.989,56.638 26.999,61.651 	"/>
	<polygon fill="#FFFFFF" points="37.699,30.873 24.938,43.629 46.505,65.196 59.262,52.439 	"/>
	<path fill="#FFFFFF" d="M54.631,60.562c-3.82,3.82-3.82,10.004,0,13.824l13.82-13.824C64.635,56.751,58.443,56.751,54.631,60.562z"
		/>
</g>
</svg>
